<?xml version="1.0" encoding="UTF-8"?>
<!DOCTYPE svg PUBLIC "-//W3C//DTD SVG 1.1//EN" "http://www.w3.org/Graphics/SVG/1.1/DTD/svg11.dtd">
<!-- Creator: CorelDRAW -->
<svg xmlns="http://www.w3.org/2000/svg" xml:space="preserve" width="102.447mm" height="38.9466mm" version="1.1" style="shape-rendering:geometricPrecision; text-rendering:geometricPrecision; image-rendering:optimizeQuality; fill-rule:evenodd; clip-rule:evenodd"
viewBox="0 0 10244.66 3894.66"
 xmlns:xlink="http://www.w3.org/1999/xlink"
 xmlns:xodm="http://www.corel.com/coreldraw/odm/2003">
 <defs>
  <style type="text/css">
   <![CDATA[
    .fil0 {fill:#D2DE32}
    .fil1 {fill:black;fill-rule:nonzero}
   ]]>
  </style>
 </defs>
 <g id="Camada_x0020_1">
  <metadata id="CorelCorpID_0Corel-Layer"/>
  <g id="_1423735941664">
   <path class="fil0" d="M1667.99 3413.88c-168.84,-7.82 -401.51,-130.17 -516.26,-205.32 -1255.01,-821.81 -668.35,-2773.03 821.6,-2771.98 1250.1,0.85 1961.05,1433.49 1183.84,2443.84 -139.79,181.73 -525.65,513.97 -878.3,533.54l0 -303.23c165.09,-77.76 238.77,-83.66 385.23,-192.35 658.08,-488.38 607.24,-1466.7 -49.54,-1898.66 -295.73,-194.5 -545.34,-193.22 -946.57,-193.22l0 610.88c233.25,0 441.05,-25.96 610.81,95.11 344.08,245.43 304.83,709.34 -1.44,910.62 -182.39,119.86 -368.57,92.04 -608.51,92.04l-0.86 878.73zm2225.57 -1274.84c87.52,-772.35 -357.61,-1551.59 -990.66,-1886.07 -1241.77,-656.07 -2705.36,131.89 -2849.64,1493.68 -113.73,1073.29 676.38,2004.61 1719.4,2117.49 605.23,65.5 1027.01,-132.24 1457.06,-451.5 63.56,-47.18 68.41,-75.39 123.75,-123.93 290.27,-254.53 494.47,-747.14 540.09,-1149.67z"/>
   <path class="fil0" d="M1905.82 1691.92c-401.3,108.59 -252.79,679.87 141.65,591.11 144.44,-32.5 264.42,-180.99 222.84,-369.4 -31.89,-144.58 -192.89,-268.14 -364.49,-221.71z"/>
  </g>
  <polygon class="fil1" points="4600.06,1835.37 4600.06,939.31 4807.04,939.31 4807.04,1835.37 "/>
  <path id="_1" class="fil1" d="M6009.77 1835.37l-201.92 0 0 -364.73c0,-42.07 -8,-72.99 -23.98,-92.76 -15.99,-19.78 -36.6,-29.66 -61.84,-29.66 -26.93,0 -53.43,10.73 -79.51,32.18 -26.08,21.46 -44.59,49.01 -55.53,82.88l0 372.09 -201.93 0 0 -364.73c0,-42.91 -7.99,-74.04 -23.98,-93.39 -15.99,-19.36 -36.6,-29.03 -61.84,-29.03 -26.08,0 -52.16,10.52 -78.25,31.55 -26.08,21.03 -45.01,48.17 -56.79,81.4l0 374.2 -201.93 0 0 -655 181.74 0 0 111.69c24.4,-38.92 57.42,-68.99 99.07,-90.03 41.65,-21.24 90.24,-31.76 145.77,-31.76 54.68,0 96.75,12.62 126.2,37.86 29.45,25.24 48.38,54.9 56.79,88.98 25.24,-40.6 58.69,-71.94 100.34,-93.82 41.64,-22.08 88.55,-33.02 140.71,-33.02 42.07,0 76.15,7.57 102.23,22.93 26.08,15.35 45.86,35.54 59.32,60.36 13.46,24.83 22.71,51.54 27.76,80.15 5.05,28.6 7.57,56.58 7.57,83.92l0 417.74z"/>
  <path id="_2" class="fil1" d="M6561.29 1847.99c-49.64,0 -92.97,-10.52 -129.99,-31.76 -37.02,-21.04 -66.05,-49.85 -87.08,-86.45l0 374.41 -201.93 0 0 -923.82 175.43 0 0 108.11c24.4,-37.44 55.11,-66.47 92.13,-87.08 37.02,-20.82 80.35,-31.13 129.99,-31.13 44.59,0 85.61,8.62 123.05,26.08 37.44,17.46 70.04,41.44 97.81,72.15 27.76,30.71 49.22,66.26 64.36,106.85 15.15,40.81 22.72,84.56 22.72,131.89 0,64.78 -12.2,122.63 -36.6,174.16 -24.4,51.32 -58.27,91.92 -101.6,121.79 -43.33,29.87 -92.76,44.8 -148.29,44.8zm-68.15 -170.38c21.88,0 41.86,-4.62 59.95,-14.09 18.09,-9.46 33.87,-21.87 47.33,-37.44 13.46,-15.35 23.77,-33.65 30.92,-54.48 7.15,-20.82 10.72,-42.7 10.72,-65.41 0,-23.77 -3.99,-45.44 -11.98,-65 -8,-19.56 -19.15,-37.02 -33.45,-52.17 -14.3,-15.14 -31.13,-26.71 -50.48,-34.91 -19.35,-8.21 -40.39,-12.2 -63.1,-12.2 -13.47,0 -27.14,2.1 -41.02,6.1 -13.88,3.99 -26.92,9.88 -39.12,17.46 -12.2,7.57 -23.35,16.61 -33.45,27.13 -10.09,10.52 -18.51,22.72 -25.24,36.39l0 134.2c9.26,21.87 21.46,41.44 36.6,58.47 15.14,17.04 32.39,30.5 51.74,40.81 19.36,10.1 39.55,15.14 60.58,15.14z"/>
  <path id="_3" class="fil1" d="M6908.36 1640.38c0,-43.12 12.19,-80.98 36.59,-113.16 24.4,-32.39 58.06,-57.84 100.97,-76.56 42.91,-18.73 92.13,-27.98 147.66,-27.98 26.92,0 53.43,2.31 79.51,6.94 26.08,4.63 48.8,11.15 68.15,19.56l0 -29.02c0,-34.92 -10.94,-61.84 -32.82,-80.57 -21.87,-18.72 -55.1,-27.97 -99.7,-27.97 -37.02,0 -71.72,6.31 -104.12,18.93 -32.39,12.62 -66.67,30.71 -102.85,54.27l-60.58 -128.73c43.75,-28.61 89.39,-50.06 136.93,-64.37 47.54,-14.3 97.81,-21.45 150.82,-21.45 99.28,0 176.47,23.35 231.58,69.83 55.11,46.7 82.67,114.01 82.67,202.35l0 169.33c0,19.77 3.15,33.65 9.46,41.43 6.31,8 17.46,12.62 33.45,14.31l0 167.85c-16.83,3.37 -32.61,5.89 -47.33,7.57 -14.72,1.69 -27.56,2.53 -38.49,2.53 -37.86,0 -66.68,-7.58 -86.45,-22.72 -19.78,-15.15 -32.19,-35.76 -37.23,-61.84l-3.79 -29.03c-29.45,37.86 -64.58,66.68 -105.38,86.45 -40.81,19.77 -83.51,29.66 -128.1,29.66 -43.75,0 -83.08,-9.04 -118,-27.34 -34.92,-18.3 -62.47,-43.12 -82.67,-74.68 -20.19,-31.55 -30.28,-66.67 -30.28,-105.59zm401.33 23.56c9.25,-7.36 16.82,-15.35 22.71,-24.4 5.89,-8.83 8.84,-17.25 8.84,-25.45l0 -57.21c-16.83,-6.52 -35.55,-11.57 -56.16,-15.15 -20.62,-3.57 -39.76,-5.47 -57.43,-5.47 -37.02,0 -67.73,8 -92.13,23.77 -24.4,15.78 -36.6,36.6 -36.6,62.47 0,14.73 4.21,27.98 12.63,40.18 8.41,12.2 19.98,21.88 34.7,29.24 14.73,7.36 32.18,10.93 52.38,10.93 20.19,0 40.38,-3.57 60.58,-10.93 20.19,-7.36 37.02,-16.62 50.48,-27.98z"/>
  <path id="_4" class="fil1" d="M8006.34 1847.99c-56.37,0 -106.44,-9.04 -150.19,-27.34 -43.75,-18.3 -80.98,-43.12 -111.69,-74.68 -30.71,-31.55 -54.06,-67.51 -70.04,-108.11 -15.99,-40.6 -23.98,-83.72 -23.98,-129.36 0,-59.74 14.09,-115.27 42.28,-166.59 28.18,-51.32 68.78,-92.97 121.79,-124.31 53,-31.55 116.95,-47.33 191.83,-47.33 75.72,0 139.87,16.2 192.46,48.59 52.59,32.39 91.92,74.67 118,126.83l-196.88 59.32c-12.62,-20.19 -28.81,-35.76 -48.59,-46.69 -19.77,-10.94 -41.86,-16.41 -66.25,-16.41 -27.77,0 -52.8,6.94 -75.1,20.82 -22.29,13.88 -39.96,33.03 -53,57.64 -13.04,24.4 -19.56,53.84 -19.56,88.13 0,33.44 6.73,62.89 20.19,88.34 13.46,25.24 31.13,45.02 53,59.32 21.88,14.3 46.7,21.45 74.47,21.45 16.82,0 32.6,-2.73 47.32,-8.2 14.73,-5.47 28.19,-13.25 40.39,-23.35 12.2,-10.09 21.66,-21.45 28.39,-34.07l196.88 60.58c-15.98,33.65 -38.91,63.73 -68.78,90.23 -29.87,26.51 -64.99,47.33 -105.38,62.47 -40.38,15.15 -86.24,22.72 -137.56,22.72z"/>
  <path id="_5" class="fil1" d="M8838.03 1800.03c-18.51,7.57 -38.91,15.15 -61.21,22.72 -22.3,7.57 -45.64,13.67 -70.04,18.3 -24.4,4.63 -48.38,6.94 -71.94,6.94 -33.65,0 -64.58,-5.68 -92.76,-16.83 -28.19,-11.14 -50.48,-29.66 -66.89,-55.32 -16.41,-25.66 -24.61,-59.73 -24.61,-102.01l0 -340.76 -84.56 0 0 -152.7 84.56 0 0 -210.77 201.93 0 0 210.77 135.04 0 0 152.7 -135.04 0 0 270.29c0,21.25 5.47,36.81 16.41,46.28 10.93,9.46 24.82,14.09 41.64,14.09 14.31,0 29.66,-2.52 46.07,-7.57 16.4,-5.05 30.5,-10.52 42.28,-16.41l39.12 160.28z"/>
  <path id="_6" class="fil1" d="M9224.22 1847.99c-56.38,0 -106.65,-9.04 -150.82,-27.34 -44.17,-18.3 -81.4,-43.12 -111.69,-74.68 -30.29,-31.55 -53.22,-67.51 -68.78,-108.11 -15.57,-40.6 -23.35,-83.3 -23.35,-128.1 0,-45.64 7.78,-88.76 23.35,-129.36 15.56,-40.59 38.49,-76.56 68.78,-108.11 30.29,-31.56 67.52,-56.38 111.69,-74.68 44.17,-18.3 94.44,-27.34 150.82,-27.34 56.37,0 106.43,9.04 150.18,27.34 43.75,18.3 80.77,43.12 111.06,74.68 30.29,31.55 53.43,67.52 69.41,108.11 15.99,40.6 23.98,83.72 23.98,129.36 0,44.8 -7.99,87.5 -23.98,128.1 -15.98,40.6 -39.12,76.56 -69.41,108.11 -30.29,31.56 -67.31,56.38 -111.06,74.68 -43.75,18.3 -93.81,27.34 -150.18,27.34zm-147.66 -338.23c0,33.45 6.52,62.89 19.56,88.13 13.04,25.46 30.5,45.02 52.37,58.9 21.88,13.88 47.12,20.82 75.73,20.82 27.76,0 52.79,-7.15 75.09,-21.45 22.29,-14.3 39.75,-34.08 52.37,-59.32 12.62,-25.45 18.93,-54.48 18.93,-87.08 0,-33.44 -6.31,-62.89 -18.93,-88.13 -12.62,-25.45 -30.08,-45.02 -52.37,-58.9 -22.3,-13.88 -47.33,-20.82 -75.09,-20.82 -28.61,0 -53.85,6.94 -75.73,20.82 -21.87,13.88 -39.33,33.45 -52.37,58.9 -13.04,25.24 -19.56,54.69 -19.56,88.13z"/>
  <path id="_7" class="fil1" d="M9932.22 1847.99c-56.37,0 -111.48,-9.25 -165.32,-27.76 -53.85,-18.51 -99.29,-45.86 -136.31,-82.04l69.42 -127.46c40.38,29.44 79.72,51.74 118,66.88 38.28,15.15 74.25,22.72 107.9,22.72 26.09,0 46.28,-4 60.58,-11.99 14.31,-7.78 21.46,-20.19 21.46,-36.81 0,-12.41 -4.21,-22.29 -12.62,-29.24 -8.42,-7.15 -21.25,-13.46 -38.5,-19.35 -17.24,-5.68 -38.49,-11.99 -63.73,-18.51 -50.48,-16.61 -92.55,-32.81 -126.2,-48.59 -33.66,-15.77 -58.9,-34.91 -75.73,-57.84 -16.82,-22.72 -25.24,-52.38 -25.24,-88.76 0,-43.97 11.15,-82.46 33.45,-115.06 22.29,-32.81 54.05,-58.27 95.28,-76.57 41.23,-18.3 90.45,-27.34 147.66,-27.34 45.44,0 89.82,7.15 133.15,21.45 43.33,14.31 83.92,38.29 121.79,71.94l-78.25 126.21c-37.86,-26.09 -71.52,-45.02 -100.97,-56.8 -29.44,-11.78 -58.05,-17.66 -85.82,-17.66 -14.3,0 -27.34,1.68 -39.12,5.04 -11.78,3.16 -21.24,8.84 -28.39,16.62 -7.16,7.78 -10.73,17.88 -10.73,30.29 0,12.41 3.57,22.3 10.73,29.87 7.15,7.36 18.51,13.67 34.07,19.14 15.57,5.26 35.13,11.78 58.69,19.14 54.68,15.78 100.12,31.55 136.3,47.75 36.18,15.98 63.31,35.97 81.4,59.52 18.09,23.35 27.13,54.69 27.13,93.4 0,66.04 -24.19,117.79 -72.56,155.44 -48.38,37.65 -114.22,56.37 -197.52,56.37z"/>
  <path id="_8" class="fil1" d="M4600.06 2926.05l0 -896.06 382.4 0c42.91,0 82.24,8.63 118,25.88 35.76,17.24 66.68,40.38 92.76,69.41 26.09,29.03 46.28,61.63 60.58,97.81 14.3,36.18 21.46,73.2 21.46,111.06 0,51.32 -11.99,100.12 -35.97,146.4 -23.98,46.27 -57.22,83.92 -99.7,112.95 -42.49,29.03 -92.76,43.54 -150.82,43.54l-181.73 0 0 289.01 -206.98 0zm206.98 -469.48l169.11 0c15.99,0 30.71,-4.63 44.17,-13.89 13.46,-9.25 24.4,-23.13 32.82,-41.64 8.41,-18.51 12.62,-41.23 12.62,-68.15 0,-27.77 -4.84,-50.7 -14.52,-68.79 -9.67,-18.08 -21.87,-31.34 -36.6,-39.75 -14.72,-8.41 -30.08,-12.62 -46.06,-12.62l-161.54 0 0 244.84z"/>
  <path id="_9" class="fil1" d="M5671.54 2938.67c-56.38,0 -106.65,-9.04 -150.82,-27.34 -44.17,-18.3 -81.4,-43.12 -111.69,-74.68 -30.29,-31.55 -53.22,-67.51 -68.78,-108.11 -15.57,-40.6 -23.35,-83.3 -23.35,-128.1 0,-45.64 7.78,-88.76 23.35,-129.36 15.56,-40.59 38.49,-76.56 68.78,-108.11 30.29,-31.56 67.52,-56.38 111.69,-74.68 44.17,-18.3 94.44,-27.34 150.82,-27.34 56.37,0 106.43,9.04 150.18,27.34 43.75,18.3 80.77,43.12 111.06,74.68 30.29,31.55 53.43,67.52 69.41,108.11 15.99,40.6 23.98,83.72 23.98,129.36 0,44.8 -7.99,87.5 -23.98,128.1 -15.98,40.6 -39.12,76.56 -69.41,108.11 -30.29,31.56 -67.31,56.38 -111.06,74.68 -43.75,18.3 -93.81,27.34 -150.18,27.34zm-147.66 -338.23c0,33.45 6.52,62.89 19.56,88.13 13.04,25.46 30.5,45.02 52.37,58.9 21.88,13.88 47.12,20.82 75.73,20.82 27.76,0 52.79,-7.15 75.09,-21.45 22.29,-14.3 39.75,-34.08 52.37,-59.32 12.62,-25.45 18.93,-54.48 18.93,-87.08 0,-33.44 -6.31,-62.89 -18.93,-88.13 -12.62,-25.45 -30.08,-45.02 -52.37,-58.9 -22.3,-13.88 -47.33,-20.82 -75.09,-20.82 -28.61,0 -53.85,6.94 -75.73,20.82 -21.87,13.88 -39.33,33.45 -52.37,58.9 -13.04,25.24 -19.56,54.69 -19.56,88.13z"/>
  <path id="_10" class="fil1" d="M6379.54 2938.67c-56.37,0 -111.48,-9.25 -165.32,-27.76 -53.85,-18.51 -99.29,-45.86 -136.31,-82.04l69.42 -127.46c40.38,29.44 79.72,51.74 118,66.88 38.28,15.15 74.25,22.72 107.9,22.72 26.09,0 46.28,-4 60.58,-11.99 14.31,-7.78 21.46,-20.19 21.46,-36.81 0,-12.41 -4.21,-22.29 -12.62,-29.24 -8.42,-7.15 -21.25,-13.46 -38.5,-19.35 -17.24,-5.68 -38.49,-11.99 -63.73,-18.51 -50.48,-16.61 -92.55,-32.81 -126.2,-48.59 -33.66,-15.77 -58.9,-34.91 -75.73,-57.84 -16.82,-22.72 -25.24,-52.38 -25.24,-88.76 0,-43.97 11.15,-82.46 33.45,-115.06 22.29,-32.81 54.05,-58.27 95.28,-76.57 41.23,-18.3 90.45,-27.34 147.66,-27.34 45.44,0 89.82,7.15 133.15,21.45 43.33,14.31 83.92,38.29 121.79,71.94l-78.25 126.21c-37.86,-26.09 -71.52,-45.02 -100.97,-56.8 -29.44,-11.78 -58.05,-17.66 -85.82,-17.66 -14.3,0 -27.34,1.68 -39.12,5.04 -11.78,3.16 -21.24,8.84 -28.39,16.62 -7.16,7.78 -10.73,17.88 -10.73,30.29 0,12.41 3.57,22.3 10.73,29.87 7.15,7.36 18.51,13.67 34.07,19.14 15.57,5.26 35.13,11.78 58.69,19.14 54.68,15.78 100.12,31.55 136.3,47.75 36.18,15.98 63.31,35.97 81.4,59.52 18.09,23.35 27.13,54.69 27.13,93.4 0,66.04 -24.19,117.79 -72.56,155.44 -48.38,37.65 -114.22,56.37 -197.52,56.37z"/>
  <path id="_11" class="fil1" d="M6753.11 2926.05l0 -662.58 201.93 0 0 662.58 -201.93 0zm0 -738.3l0 -183 201.93 0 0 183 -201.93 0z"/>
  <path id="_12" class="fil1" d="M7522.96 2890.71c-18.51,7.57 -38.91,15.15 -61.21,22.72 -22.3,7.57 -45.64,13.67 -70.04,18.3 -24.4,4.63 -48.38,6.94 -71.94,6.94 -33.65,0 -64.58,-5.68 -92.76,-16.83 -28.19,-11.14 -50.48,-29.66 -66.89,-55.32 -16.41,-25.66 -24.61,-59.73 -24.61,-102.01l0 -340.76 -84.56 0 0 -152.7 84.56 0 0 -210.77 201.93 0 0 210.77 135.04 0 0 152.7 -135.04 0 0 270.29c0,21.25 5.47,36.81 16.41,46.28 10.93,9.46 24.82,14.09 41.64,14.09 14.31,0 29.66,-2.52 46.07,-7.57 16.4,-5.05 30.5,-10.52 42.28,-16.41l39.12 160.28z"/>
  <path id="_13" class="fil1" d="M7601.2 2926.05l0 -662.58 201.93 0 0 662.58 -201.93 0zm0 -738.3l0 -183 201.93 0 0 183 -201.93 0z"/>
  <polygon id="_14" class="fil1" points="8113.59,2926.05 7878.85,2271.05 8087.09,2271.05 8232.22,2746.42 8377.36,2271.05 8566.67,2271.05 8333.19,2926.05 "/>
  <path id="_15" class="fil1" d="M8936.45 2938.67c-56.38,0 -106.65,-9.04 -150.82,-27.34 -44.17,-18.3 -81.4,-43.12 -111.69,-74.68 -30.29,-31.55 -53.22,-67.51 -68.78,-108.11 -15.57,-40.6 -23.35,-83.3 -23.35,-128.1 0,-45.64 7.78,-88.76 23.35,-129.36 15.56,-40.59 38.49,-76.56 68.78,-108.11 30.29,-31.56 67.52,-56.38 111.69,-74.68 44.17,-18.3 94.44,-27.34 150.82,-27.34 56.37,0 106.43,9.04 150.18,27.34 43.75,18.3 80.77,43.12 111.06,74.68 30.29,31.55 53.43,67.52 69.41,108.11 15.99,40.6 23.98,83.72 23.98,129.36 0,44.8 -7.99,87.5 -23.98,128.1 -15.98,40.6 -39.12,76.56 -69.41,108.11 -30.29,31.56 -67.31,56.38 -111.06,74.68 -43.75,18.3 -93.81,27.34 -150.18,27.34zm-147.66 -338.23c0,33.45 6.52,62.89 19.56,88.13 13.04,25.46 30.5,45.02 52.37,58.9 21.88,13.88 47.12,20.82 75.73,20.82 27.76,0 52.79,-7.15 75.09,-21.45 22.29,-14.3 39.75,-34.08 52.37,-59.32 12.62,-25.45 18.93,-54.48 18.93,-87.08 0,-33.44 -6.31,-62.89 -18.93,-88.13 -12.62,-25.45 -30.08,-45.02 -52.37,-58.9 -22.3,-13.88 -47.33,-20.82 -75.09,-20.82 -28.61,0 -53.85,6.94 -75.73,20.82 -21.87,13.88 -39.33,33.45 -52.37,58.9 -13.04,25.24 -19.56,54.69 -19.56,88.13z"/>
  <path id="_16" class="fil1" d="M9644.45 2938.67c-56.37,0 -111.48,-9.25 -165.32,-27.76 -53.85,-18.51 -99.29,-45.86 -136.31,-82.04l69.42 -127.46c40.38,29.44 79.72,51.74 118,66.88 38.28,15.15 74.25,22.72 107.9,22.72 26.09,0 46.28,-4 60.58,-11.99 14.31,-7.78 21.46,-20.19 21.46,-36.81 0,-12.41 -4.21,-22.29 -12.62,-29.24 -8.42,-7.15 -21.25,-13.46 -38.5,-19.35 -17.24,-5.68 -38.49,-11.99 -63.73,-18.51 -50.48,-16.61 -92.55,-32.81 -126.2,-48.59 -33.66,-15.77 -58.9,-34.91 -75.73,-57.84 -16.82,-22.72 -25.24,-52.38 -25.24,-88.76 0,-43.97 11.15,-82.46 33.45,-115.06 22.29,-32.81 54.05,-58.27 95.28,-76.57 41.23,-18.3 90.45,-27.34 147.66,-27.34 45.44,0 89.82,7.15 133.15,21.45 43.33,14.31 83.92,38.29 121.79,71.94l-78.25 126.21c-37.86,-26.09 -71.52,-45.02 -100.97,-56.8 -29.44,-11.78 -58.05,-17.66 -85.82,-17.66 -14.3,0 -27.34,1.68 -39.12,5.04 -11.78,3.16 -21.24,8.84 -28.39,16.62 -7.16,7.78 -10.73,17.88 -10.73,30.29 0,12.41 3.57,22.3 10.73,29.87 7.15,7.36 18.51,13.67 34.07,19.14 15.57,5.26 35.13,11.78 58.69,19.14 54.68,15.78 100.12,31.55 136.3,47.75 36.18,15.98 63.31,35.97 81.4,59.52 18.09,23.35 27.13,54.69 27.13,93.4 0,66.04 -24.19,117.79 -72.56,155.44 -48.38,37.65 -114.22,56.37 -197.52,56.37z"/>
 </g>
</svg>
